<?xml version="1.0" encoding="UTF-8"?>
<svg version="1.1" xmlns="http://www.w3.org/2000/svg" width="1024" height="1024">
<path d="M0 0 C337.92 0 675.84 0 1024 0 C1024 337.92 1024 675.84 1024 1024 C686.08 1024 348.16 1024 0 1024 C0 686.08 0 348.16 0 0 Z " fill="#FDFDFD" transform="translate(0,0)"/>
<path d="M0 0 C2.11359842 -0.00435342 4.22719526 -0.00953865 6.34078979 -0.01548767 C12.05133026 -0.02881748 17.7618043 -0.02946334 23.47235727 -0.02692437 C28.24882309 -0.02585111 33.02527566 -0.03074682 37.80173862 -0.03552979 C49.07096093 -0.04660298 60.34014989 -0.04707395 71.609375 -0.04101562 C83.22015464 -0.03496962 94.8308133 -0.04730782 106.44157231 -0.06858569 C116.42915687 -0.08621327 126.41670294 -0.09220144 136.40430248 -0.08894795 C142.36137683 -0.08713767 148.31836475 -0.08974644 154.27542496 -0.10366249 C159.8750117 -0.11625589 165.47440977 -0.11428231 171.07399368 -0.1012516 C173.12420211 -0.09889003 175.17442389 -0.10160542 177.224617 -0.10987473 C195.20683193 -0.17715578 208.04190778 2.13154474 221.60888672 14.8137207 C227.33489328 20.78621099 231.6735354 27.70444983 234.96826172 35.2746582 C235.39945312 36.26079102 235.39945312 36.26079102 235.83935547 37.2668457 C242.39508577 53.38955085 241.2314353 76.47963237 234.75537109 92.45336914 C226.71492247 111.0581293 213.05309198 123.54043609 197.98779297 136.50512695 C195.27339979 138.88350241 192.62253785 141.32974725 189.96826172 143.7746582 C186.05851817 147.37486276 182.10959501 150.91883602 178.09326172 154.3996582 C175.35002754 156.82015895 172.65941603 159.29666463 169.96826172 161.7746582 C166.05844576 165.37478576 162.10959704 168.91883426 158.09326172 172.3996582 C155.35002678 174.82015962 152.65944929 177.29669998 149.96826172 179.7746582 C146.01236988 183.4163371 142.02264548 187.0096532 137.96044922 190.5324707 C135.60805537 192.58966219 133.28791206 194.68062735 130.96826172 196.7746582 C127.98763451 199.46449251 124.99580939 202.13776184 121.96826172 204.7746582 C115.33989722 210.55289178 108.84182214 216.47635071 102.34326172 222.3996582 C99.28694223 225.18278712 96.21868924 227.94445623 93.09326172 230.6496582 C89.48253842 233.78489531 85.97437882 237.02371267 82.46826172 240.2746582 C78.33680829 244.10508642 74.17716623 247.88728386 69.91748047 251.57543945 C65.8873208 255.08870489 61.93620103 258.69148876 57.96826172 262.2746582 C48.47607422 270.84639116 48.47607422 270.84639116 44.09326172 274.6496582 C40.6649398 277.63382506 37.31205371 280.69654304 33.96826172 283.7746582 C30.00347055 287.42443183 26.0046815 291.02554371 21.93310547 294.5559082 C19.73438575 296.47924155 17.5701849 298.4378165 15.40576172 300.3996582 C11.23003641 304.17251874 6.98454939 307.85536704 2.71826172 311.5246582 C-3.05580674 316.49730179 -8.68213491 321.60419619 -14.24462891 326.81176758 C-17.81078814 330.14916974 -21.42111201 333.4173938 -25.11767578 336.6105957 C-29.14003728 340.10758754 -33.07553395 343.70325186 -37.03173828 347.2746582 C-38.69814679 348.77494499 -40.36481181 350.27494693 -42.03173828 351.7746582 C-42.85802734 352.51844727 -43.68431641 353.26223633 -44.53564453 354.02856445 C-46.18877171 355.51612021 -47.84241084 357.00310724 -49.49658203 358.48950195 C-53.89686893 362.44489412 -58.28444204 366.41333018 -62.65673828 370.3996582 C-66.40557505 373.8119935 -70.18720405 377.1786987 -74.01220703 380.50512695 C-78.96636271 384.84600224 -83.8360935 389.28355675 -88.71533203 393.70825195 C-89.58287109 394.49329102 -90.45041016 395.27833008 -91.34423828 396.0871582 C-92.5140625 397.14870117 -92.5140625 397.14870117 -93.70751953 398.23168945 C-96.03173828 400.2746582 -96.03173828 400.2746582 -98.62158203 402.16137695 C-101.43906778 404.63181421 -102.679548 406.90162603 -104.28173828 410.2746582 C-104.78189453 411.3059082 -105.28205078 412.3371582 -105.79736328 413.3996582 C-109.04569035 420.96538202 -109.37369838 429.57951905 -106.46923828 437.3371582 C-105.69839892 439.00291037 -104.8842693 440.64919997 -104.03173828 442.2746582 C-103.60376953 443.10094727 -103.17580078 443.92723633 -102.73486328 444.77856445 C-97.32358045 454.13673656 -89.53686957 461.60067601 -82.03173828 469.2746582 C-80.92354662 470.42298112 -79.81546631 471.57141151 -78.70751953 472.7199707 C-73.85139052 477.70763581 -68.91156383 482.27571814 -63.31689453 486.4387207 C-57.3038776 491.26969157 -51.96387174 496.99762647 -46.95996094 502.85302734 C-42.6601099 507.77811057 -38.05031207 512.36335956 -33.40673828 516.9621582 C-32.04814697 518.31506958 -32.04814697 518.31506958 -30.66210938 519.6953125 C-27.78774259 522.55754384 -24.91026888 525.41661622 -22.03173828 528.2746582 C-18.2369849 532.04240153 -14.44592447 535.81381365 -10.65673828 539.5871582 C-9.79612793 540.43947021 -8.93551758 541.29178223 -8.04882812 542.16992188 C-3.67122294 546.52984412 0.54310853 550.9492769 4.53125 555.66992188 C6.04387766 557.44789036 6.04387766 557.44789036 8.46826172 559.2746582 C10.59195324 560.97361142 12.03447359 562.46376324 13.7565918 564.52563477 C19.44813099 571.09456083 25.70013682 577.1293899 31.85498047 583.2590332 C33.20324809 584.60543186 34.55129222 585.95205435 35.89912415 587.29888916 C39.42821529 590.824185 42.96029799 594.34646828 46.49304199 597.86810303 C50.08881258 601.45362434 53.68174005 605.04199213 57.27490234 608.63012695 C63.07376722 614.42022706 68.87435864 620.20859059 74.67720032 625.9947052 C76.10773468 627.42117514 77.53800912 628.84790574 78.96826172 630.2746582 C79.7508284 631.01564758 80.53339508 631.75663696 81.3396759 632.52008057 C82.96826172 634.2746582 82.96826172 634.2746582 82.96826172 636.2746582 C83.62826172 636.2746582 84.28826172 636.2746582 84.96826172 636.2746582 C88.1824529 639.19665018 90.9925074 642.43190797 93.86669922 645.68481445 C99.5192691 651.97549464 105.51532895 657.89742526 111.53076172 663.8371582 C113.70157782 665.98144316 115.86907425 668.12900696 118.03466797 670.27856445 C118.53140518 670.76700333 119.0281424 671.2554422 119.53993225 671.75868225 C120.70165098 672.91190075 121.83788472 674.09070248 122.96826172 675.2746582 C122.96826172 675.6046582 122.96826172 675.9346582 122.96826172 676.2746582 C104.26041563 676.36851607 85.55261799 676.43883894 66.84458447 676.48190689 C58.1561561 676.50244452 49.46787487 676.53039455 40.77954102 676.57641602 C33.19794442 676.61655569 25.6164545 676.64215477 18.03475457 676.65101218 C14.02828102 676.65618155 10.02211237 676.66814235 6.01573753 676.69757843 C-13.71941771 676.83696048 -32.87334086 676.77611483 -51.40673828 668.9621582 C-52.50912842 668.51332275 -52.50912842 668.51332275 -53.63378906 668.05541992 C-85.41700458 654.82568242 -108.86342202 629.98498234 -122.19482422 598.4519043 C-124.45745181 592.56564035 -125.74612551 586.43541642 -127.03173828 580.2746582 C-127.28196686 579.26115482 -127.28196686 579.26115482 -127.53725056 578.22717662 C-128.78905786 573.07418883 -129.319579 568.30271913 -129.28900719 563.01066208 C-129.29251326 562.22654036 -129.29601934 561.44241865 -129.29963166 560.63453567 C-129.30889588 558.02107586 -129.30403525 555.40784133 -129.29916382 552.79437256 C-129.30290263 550.895912 -129.30750507 548.99745299 -129.31289446 547.0989964 C-129.32511213 541.89232863 -129.32486542 536.68572518 -129.32250571 531.47904634 C-129.32209721 525.85910842 -129.33314011 520.23919103 -129.34262085 514.6192627 C-129.35922696 503.61042529 -129.36473029 492.6016093 -129.36584561 481.59276041 C-129.36679662 472.63863212 -129.3709096 463.68451089 -129.37724686 454.73038483 C-129.39199538 433.45744684 -129.40429661 412.18451476 -129.40324974 390.9115715 C-129.40321858 390.23151379 -129.40318743 389.55145609 -129.40315532 388.85079057 C-129.40298912 385.40426945 -129.40279104 381.95774834 -129.40258591 378.51122722 C-129.40254602 377.8267853 -129.40250613 377.14234337 -129.40246503 376.43716079 C-129.40238415 375.05305006 -129.40230056 373.66893933 -129.40221425 372.28482861 C-129.40099008 350.77392442 -129.41597817 329.26308339 -129.44335938 307.75219727 C-129.47414035 283.56069103 -129.4912628 259.36923956 -129.48943293 235.17770886 C-129.48877024 222.37858285 -129.4942091 209.57952803 -129.51578903 196.7804184 C-129.53405411 185.8776223 -129.53830482 174.97492963 -129.52477019 164.07212481 C-129.51826633 158.51610719 -129.51802924 152.96028769 -129.53547668 147.40428925 C-129.55132825 142.30366347 -129.54822184 137.2033909 -129.53090842 132.1027731 C-129.5278648 130.2715888 -129.53136945 128.44037734 -129.54262857 126.60922512 C-129.74996883 90.45125388 -117.24421011 60.12631946 -92.03173828 34.2746582 C-66.83933373 9.00019371 -34.79161411 -0.04750697 0 0 Z " fill="#3C5D91" transform="translate(245.03173828125,173.725341796875)"/>
<path d="M0 0 C0.33 0 0.66 0 1 0 C1 103.95 1 207.9 1 315 C6.23533699 312.45091148 6.23533699 312.45091148 10.5078125 309.1171875 C11.10207031 308.58996094 11.69632813 308.06273437 12.30859375 307.51953125 C13.52771162 306.41577077 14.74645685 305.31159857 15.96484375 304.20703125 C16.55652344 303.68238281 17.14820313 303.15773438 17.7578125 302.6171875 C18.2852002 302.13878418 18.81258789 301.66038086 19.35595703 301.16748047 C21.2133523 299.84849262 22.77613824 299.41625666 25 299 C24.71125 299.72703125 24.4225 300.4540625 24.125 301.203125 C20.76400061 310.30583167 19.15370287 318.72151046 22.5625 328.0625 C23.33333936 329.72825217 24.14746898 331.37454176 25 333 C25.42796875 333.82628906 25.8559375 334.65257812 26.296875 335.50390625 C31.70815783 344.86207836 39.49486871 352.32601781 47 360 C48.10819166 361.14832292 49.21627197 362.29675331 50.32421875 363.4453125 C55.18034776 368.43297761 60.12017445 373.00105994 65.71484375 377.1640625 C71.72786069 381.99503337 77.06786654 387.72296827 82.07177734 393.57836914 C86.37162838 398.50345237 90.98142621 403.08870135 95.625 407.6875 C96.53072754 408.58944092 97.43645508 409.49138184 98.36962891 410.4206543 C101.24399569 413.28288564 104.1214694 416.14195802 107 419 C110.79475338 422.76774333 114.58581381 426.53915545 118.375 430.3125 C119.23561035 431.16481201 120.0962207 432.01712402 120.98291016 432.89526367 C125.36051534 437.25518592 129.57484681 441.6746187 133.56298828 446.39526367 C135.07561594 448.17323216 135.07561594 448.17323216 137.5 450 C139.62369152 451.69895321 141.06621187 453.18910503 142.78833008 455.25097656 C148.47986927 461.81990262 154.7318751 467.8547317 160.88671875 473.984375 C162.23498637 475.33077366 163.5830305 476.67739615 164.93086243 478.02423096 C168.45995357 481.5495268 171.99203627 485.07181008 175.52478027 488.59344482 C179.12055086 492.17896613 182.71347833 495.76733392 186.30664062 499.35546875 C192.1055055 505.14556885 197.90609693 510.93393238 203.7089386 516.720047 C205.13947296 518.14651694 206.56974741 519.57324754 208 521 C208.78256668 521.74098938 209.56513336 522.48197876 210.37141418 523.24542236 C212 525 212 525 212 527 C212.66 527 213.32 527 214 527 C217.21419118 529.92199198 220.02424568 533.15724977 222.8984375 536.41015625 C228.55100738 542.70083643 234.54706723 548.62276705 240.5625 554.5625 C242.7333161 556.70678496 244.90081253 558.85434875 247.06640625 561.00390625 C247.56314346 561.49234512 248.05988068 561.980784 248.57167053 562.48402405 C249.73338926 563.63724255 250.869623 564.81604428 252 566 C252 566.33 252 566.66 252 567 C233.29215392 567.09385787 214.58435627 567.16418074 195.87632275 567.20724869 C187.18789438 567.22778632 178.49961315 567.25573635 169.8112793 567.30175781 C162.2296827 567.34189748 154.64819278 567.36749656 147.06649286 567.37635398 C143.06001931 567.38152334 139.05385065 567.39348415 135.04747581 567.42292023 C115.31232057 567.56230228 96.15839743 567.50145663 77.625 559.6875 C76.52260986 559.23866455 76.52260986 559.23866455 75.39794922 558.78076172 C43.6147337 545.55102422 20.16831626 520.71032414 6.83691406 489.17724609 C4.57428648 483.29098215 3.28561277 477.16075821 2 471 C1.83305132 470.32501162 1.66610264 469.65002324 1.49409492 468.95458067 C0.23523652 463.7793898 -0.28501168 458.99226832 -0.24609566 453.67734432 C-0.24840335 452.88693108 -0.25071103 452.09651784 -0.25308865 451.28215268 C-0.25836032 448.64748276 -0.24942829 446.01305989 -0.24050903 443.37840271 C-0.24138168 441.46497686 -0.24313375 439.55155125 -0.24568737 437.63812691 C-0.25015326 432.39090323 -0.24216759 427.14376141 -0.23213124 421.89654815 C-0.22348815 416.2340768 -0.22641751 410.57161 -0.22793579 404.90913391 C-0.2289841 395.10204921 -0.22271316 385.29499114 -0.21146011 375.48791313 C-0.19520073 361.30855607 -0.18999666 347.12921188 -0.18748413 332.94984651 C-0.18310772 309.94433924 -0.16981726 286.93884876 -0.15087891 263.93334961 C-0.13250416 241.58667067 -0.11833981 219.23999553 -0.10986328 196.89331055 C-0.10960023 196.20424045 -0.10933718 195.51517036 -0.10906615 194.80521935 C-0.10642907 187.88516519 -0.10387745 180.965111 -0.10138843 174.04505679 C-0.08051354 116.03002823 -0.04522762 58.01501448 0 0 Z " fill="#6481AB" transform="translate(116,283)"/>
<path d="M0 0 C3.77946736 2.24022903 6.88583495 4.91339393 10 8 C10.33 7.01 10.66 6.02 11 5 C16.32381277 0.60475922 21.68884312 -0.7066345 28.484375 -0.35546875 C33.26846279 0.32054366 36.00550855 1.92263426 39.25 5.4375 C43.79712118 12.09578458 44.15362264 18.27639535 44.09765625 26.2421875 C44.0962413 27.01055939 44.09482635 27.77893127 44.09336853 28.57058716 C44.08780683 31.00543239 44.0752616 33.44018294 44.0625 35.875 C44.05748004 37.53385283 44.05291801 39.19270712 44.04882812 40.8515625 C44.03784998 44.9010777 44.02061206 48.95052284 44 53 C39.38 53 34.76 53 30 53 C29.94392578 49.54853516 29.94392578 49.54853516 29.88671875 46.02734375 C29.84040572 43.77993683 29.78920795 41.53269004 29.73754883 39.28540039 C29.70445223 37.73276638 29.67637349 36.18001647 29.65356445 34.62719727 C29.61973476 32.3850806 29.56741013 30.14401153 29.51171875 27.90234375 C29.50532883 27.21663803 29.4989389 26.53093231 29.49235535 25.82444763 C29.34286611 20.83882377 28.15092004 17.40450332 26 13 C24.60596244 12.89066372 23.20936224 12.81380447 21.8125 12.75 C21.03519531 12.70359375 20.25789063 12.6571875 19.45703125 12.609375 C15.91198661 13.1729751 14.48187492 14.41268595 12 17 C11.48400573 19.94122468 11.27788027 22.32358308 11.29296875 25.265625 C11.27784744 26.05902283 11.26272614 26.85242065 11.24714661 27.66986084 C11.20425621 30.19686268 11.19543095 32.72267039 11.1875 35.25 C11.16435653 36.96617761 11.13899149 38.6823268 11.11132812 40.3984375 C11.04846326 44.59906394 11.01613843 48.79894466 11 53 C6.38 53 1.76 53 -3 53 C-3.00410889 51.93563721 -3.00821777 50.87127441 -3.01245117 49.7746582 C-3.03427448 45.81388366 -3.08859606 41.85409805 -3.15258789 37.89379883 C-3.17574025 36.18198141 -3.19015715 34.4700221 -3.19555664 32.75805664 C-3.20486703 30.29223502 -3.24589779 27.82863626 -3.29296875 25.36328125 C-3.2890361 24.60163162 -3.28510345 23.83998199 -3.28105164 23.05525208 C-3.38970429 19.07064359 -3.86466712 17.17545678 -6.32543945 13.98510742 C-8.91393706 11.67192887 -8.91393706 11.67192887 -12.5 11.875 C-16.70898885 13.22788927 -18.26326973 14.54151997 -21 18 C-21.5068646 20.90588609 -21.72245392 23.24335126 -21.70703125 26.14453125 C-21.72215256 26.91431808 -21.73727386 27.68410492 -21.75285339 28.47721863 C-21.79565263 30.92261218 -21.8045601 33.3667696 -21.8125 35.8125 C-21.83565061 37.47594414 -21.86101713 39.13935902 -21.88867188 40.80273438 C-21.95144647 44.86859846 -21.98384249 48.93369425 -22 53 C-26.62 53 -31.24 53 -36 53 C-36 35.84 -36 18.68 -36 1 C-31.71 1 -27.42 1 -23 1 C-22.67 2.65 -22.34 4.3 -22 6 C-21.52949219 5.65066406 -21.05898438 5.30132812 -20.57421875 4.94140625 C-19.95160156 4.48636719 -19.32898438 4.03132813 -18.6875 3.5625 C-18.07261719 3.11003906 -17.45773437 2.65757812 -16.82421875 2.19140625 C-11.85048176 -1.05696587 -5.6745615 -0.99493521 0 0 Z " fill="#222D43" transform="translate(471,468)"/>
<path d="M0 0 C6.74552254 5.8408752 10.63104619 11.17525267 11.4375 20.19140625 C11.78759529 27.67177558 10.22317607 33.96880467 5.734375 40.05078125 C0.68141841 45.56202925 -6.25710206 49.27603587 -13.7578125 50.0078125 C-14.47453125 50.08257813 -15.19125 50.15734375 -15.9296875 50.234375 C-22.92010251 50.6468529 -28.02702318 49.02777891 -33.7578125 45.0078125 C-39.99944574 39.43379029 -44.07161129 33.77537706 -45.06640625 25.4140625 C-45.42040938 17.77617678 -43.93282217 11.0029076 -39.109375 4.93359375 C-28.89863717 -5.70073364 -12.5451808 -9.06238273 0 0 Z " fill="#647EA7" transform="translate(421.7578125,582.9921875)"/>
<path d="M0 0 C4.95 0 9.9 0 15 0 C16.12688693 3.35354319 17.25156566 6.70780024 18.375 10.0625 C18.69210937 11.00544922 19.00921875 11.94839844 19.3359375 12.91992188 C24 26.86352539 24 26.86352539 24 32 C24.66 32 25.32 32 26 32 C26.103125 30.88625 26.20625 29.7725 26.3125 28.625 C26.82638451 24.54247308 27.86525367 20.79201807 29.1015625 16.875 C30.1900803 13.39174303 31.19164572 9.88555269 32.1875 6.375 C32.53167969 5.16585937 32.87585938 3.95671875 33.23046875 2.7109375 C33.48441406 1.81632813 33.73835937 0.92171875 34 0 C38.29 0 42.58 0 47 0 C48.28720701 3.91270067 49.57074793 7.82632168 50.84521484 11.74316406 C51.27962702 13.07458394 51.71613096 14.40532325 52.15478516 15.73535156 C52.7858062 17.64987799 53.4086298 19.56710009 54.03125 21.484375 C54.59682617 23.21252441 54.59682617 23.21252441 55.17382812 24.97558594 C56 28 56 28 56 32 C56.66 32 57.32 32 58 32 C58.10441406 30.86820313 58.20882812 29.73640625 58.31640625 28.5703125 C58.91737469 23.77312682 60.33892843 19.4215369 61.9375 14.875 C62.20240234 14.10285156 62.46730469 13.33070313 62.74023438 12.53515625 C63.23595019 11.09106105 63.73477963 9.64802728 64.23803711 8.20654297 C65.1801392 5.47834089 66.08727644 2.73817068 67 0 C71.62 0 76.24 0 81 0 C80.00950784 3.33639465 79.00886779 6.66913491 78 10 C77.81244141 10.62132812 77.62488281 11.24265625 77.43164062 11.8828125 C75.22820961 19.15627412 72.98361524 26.32296032 70.046875 33.33984375 C67.76841013 39.12952501 65.92431537 45.08509619 64 51 C59.38 51 54.76 51 50 51 C48.87119507 47.66791272 47.74686248 44.33442459 46.625 41 C46.30789063 40.06542969 45.99078125 39.13085938 45.6640625 38.16796875 C45.3546875 37.24628906 45.0453125 36.32460938 44.7265625 35.375 C44.44377441 34.53710938 44.16098633 33.69921875 43.86962891 32.8359375 C42.77419462 29.26362849 41.90623228 25.6249291 41 22 C37.7 31.57 34.4 41.14 31 51 C26.71 51 22.42 51 18 51 C13.86377074 40.90993872 10.03142459 30.74139017 6.42041016 20.4519043 C5.60924965 18.14266129 4.79120886 15.8359287 3.97265625 13.52929688 C3.45272127 12.0548298 2.93317448 10.58022577 2.4140625 9.10546875 C2.17039948 8.41913864 1.92673645 7.73280853 1.6756897 7.02568054 C0 2.23006642 0 2.23006642 0 0 Z " fill="#6681A9" transform="translate(519,580)"/>
<path d="M0 0 C1 1 1 1 1.09765625 4.16015625 C1.08605469 5.44792969 1.07445312 6.73570312 1.0625 8.0625 C1.05347656 9.35285156 1.04445313 10.64320313 1.03515625 11.97265625 C1.02355469 12.97167969 1.01195312 13.97070312 1 15 C0.26265625 14.70351563 -0.4746875 14.40703125 -1.234375 14.1015625 C-8.09234886 11.36999664 -14.48000357 8.83726963 -22 10 C-22.99 10.66 -23.98 11.32 -25 12 C-25.45743449 15.15121537 -25.70063941 16.9998261 -25 20 C-21.56893853 23.3357542 -17.60279382 24.5644271 -13.1875 26.3125 C-6.20090314 29.14537385 -0.43897124 32.67413013 4.0625 38.8125 C5.72902019 44.47866866 5.95837019 50.25517281 3.75 55.8125 C-0.22740188 63.05705342 -4.58451073 66.28984549 -12.375 68.75 C-22.43283888 69.70788942 -32.35933693 68.76044205 -41 63 C-41.22137393 60.37302936 -41.28162025 57.99106036 -41.1875 55.375 C-41.17396484 54.66859375 -41.16042969 53.9621875 -41.14648438 53.234375 C-41.1111104 51.48925872 -41.05730221 49.74453392 -41 48 C-38.59125548 48.92998484 -36.25158909 49.86768635 -33.96484375 51.0703125 C-27.92849465 54.21060972 -21.74598733 55.32771965 -15 54 C-12.43391934 51.91857538 -11.19936101 50.77750793 -10.375 47.5625 C-11.29475116 43.79152026 -13.91177191 42.09701187 -17 40 C-19.58286531 38.72232026 -22.24611739 37.71217021 -24.9375 36.6875 C-32.2380638 33.72385538 -37.37722747 30.24554505 -41 23 C-42.35989446 9.88304329 -42.35989446 9.88304329 -38.4375 4.375 C-28.56188276 -6.5021539 -12.38930461 -6.5917454 0 0 Z " fill="#647FA8" transform="translate(367,564)"/>
<path d="M0 0 C7.66878075 -0.30714755 13.21271263 1.21846946 20.2734375 4.19140625 C20.2734375 8.81140625 20.2734375 13.43140625 20.2734375 18.19140625 C10.6484375 15.31640625 10.6484375 15.31640625 7.2734375 14.19140625 C5.60885077 14.09832081 3.94061753 14.0614444 2.2734375 14.06640625 C1.4071875 14.06382812 0.5409375 14.06125 -0.3515625 14.05859375 C-2.87667945 14.0954642 -2.87667945 14.0954642 -5.7265625 15.19140625 C-5.8090625 16.42890625 -5.8915625 17.66640625 -5.9765625 18.94140625 C-6.04617188 19.98554688 -6.04617188 19.98554688 -6.1171875 21.05078125 C-5.53127171 24.26159979 -4.30425461 25.18962378 -1.7265625 27.19140625 C1.147404 28.60222233 4.11209913 29.75933031 7.0859375 30.94140625 C14.81469116 34.17126432 20.41051602 37.4655633 24.2734375 45.19140625 C24.97304164 52.64620448 24.81497776 59.02148477 20.2734375 65.19140625 C14.94101144 70.82854238 8.06638802 72.2870189 0.53442383 72.64746094 C-7.95094272 72.82729915 -14.03074307 71.03931597 -21.7265625 67.19140625 C-21.7265625 61.91140625 -21.7265625 56.63140625 -21.7265625 51.19140625 C-19.4784375 52.34640625 -17.2303125 53.50140625 -14.9140625 54.69140625 C-8.65647415 57.72534712 -2.7591427 59.86179535 4.2734375 58.19140625 C6.56795667 56.9670279 6.56795667 56.9670279 8.2734375 55.19140625 C9.10689565 51.73436129 9.10689565 51.73436129 8.2734375 48.19140625 C4.2536524 45.03946082 0.06868414 43.16766847 -4.6640625 41.31640625 C-11.67712729 38.42532108 -16.62517009 35.58074884 -20.6640625 29.06640625 C-22.68367243 23.3015703 -23.22739838 16.37359092 -20.58984375 10.78125 C-16.96855384 5.69623661 -12.78676936 1.9258559 -6.6015625 0.44140625 C-4.40070372 0.29941536 -2.20002005 0.15444267 0 0 Z " fill="#212A41" transform="translate(347.7265625,449.80859375)"/>
<path d="M0 0 C5.18172492 4.07947203 8.33571135 8.28849713 10.78125 14.40234375 C10.78125 19.02234375 10.78125 23.64234375 10.78125 28.40234375 C-1.09875 28.40234375 -12.97875 28.40234375 -25.21875 28.40234375 C-22.07430508 35.97895251 -22.07430508 35.97895251 -16.21875 39.40234375 C-7.74521018 40.38005988 -0.06580091 39.70636519 7.78125 36.40234375 C7.78125 40.03234375 7.78125 43.66234375 7.78125 47.40234375 C-2.16315039 51.9358204 -11.1581584 54.50109114 -22.09375 51.21484375 C-28.62956959 48.68561158 -32.73391032 44.50081319 -36.21875 38.40234375 C-39.30050585 30.69239139 -39.6382878 21.35805159 -37.34375 13.34765625 C-34.09598262 6.31794923 -28.73042927 0.65223187 -21.36328125 -2.125 C-14.25856088 -3.69088555 -6.37857763 -3.79741592 0 0 Z " fill="#6580A9" transform="translate(737.21875,580.59765625)"/>
<path d="M0 0 C7.27068393 -0.23453819 13.70232535 -0.22737875 19.7578125 4.1953125 C25.23928373 10.00699284 25.90281903 15.33534294 25.85546875 23.01953125 C25.8540538 23.88093216 25.85263885 24.74233307 25.85118103 25.62983704 C25.8455839 28.38086419 25.83303196 31.13180994 25.8203125 33.8828125 C25.81529713 35.7480457 25.81073429 37.61328017 25.80664062 39.47851562 C25.79561542 44.05081261 25.77835277 48.62304875 25.7578125 53.1953125 C21.4678125 53.1953125 17.1778125 53.1953125 12.7578125 53.1953125 C12.7578125 51.5453125 12.7578125 49.8953125 12.7578125 48.1953125 C12.19835937 48.6284375 11.63890625 49.0615625 11.0625 49.5078125 C4.75150509 53.89101154 -0.34314267 55.13207516 -8.01953125 54.78125 C-12.78134415 53.91546584 -15.47124506 52.13059231 -18.2421875 48.1953125 C-20.45136935 43.77694881 -21.02202249 39.06928122 -20.2421875 34.1953125 C-17.37449531 28.45992811 -13.30556975 25.21643992 -7.2421875 23.1953125 C-5.76095203 23.1146503 -4.27636546 23.08770057 -2.79296875 23.09765625 C-1.94541016 23.10087891 -1.09785156 23.10410156 -0.22460938 23.10742188 C0.65646484 23.11580078 1.53753906 23.12417969 2.4453125 23.1328125 C3.78432617 23.13958008 3.78432617 23.13958008 5.15039062 23.14648438 C7.35293237 23.15826267 9.55533849 23.17471086 11.7578125 23.1953125 C11.28572093 18.13309803 11.28572093 18.13309803 8.9453125 13.7578125 C2.3007446 10.50067137 -5.082469 11.64107186 -11.9921875 13.6953125 C-13.3946875 14.1903125 -14.7971875 14.6853125 -16.2421875 15.1953125 C-16.2421875 11.5653125 -16.2421875 7.9353125 -16.2421875 4.1953125 C-10.7023829 1.08761724 -6.18776538 0.37275695 0 0 Z " fill="#20293E" transform="translate(398.2421875,467.8046875)"/>
<path d="M0 0 C3.53052985 2.88633365 6.6022298 6.25524085 8.6484375 10.34765625 C8.73548896 13.33735914 8.76393895 16.3035058 8.74609375 19.29296875 C8.7446788 20.17798065 8.74326385 21.06299255 8.74180603 21.974823 C8.7361989 24.80746816 8.72364521 27.64003489 8.7109375 30.47265625 C8.70592342 32.39062386 8.70136035 34.30859271 8.69726562 36.2265625 C8.68622716 40.93362407 8.66895775 45.64062685 8.6484375 50.34765625 C4.6884375 50.34765625 0.7284375 50.34765625 -3.3515625 50.34765625 C-3.3515625 48.69765625 -3.3515625 47.04765625 -3.3515625 45.34765625 C-4.03863281 45.76917969 -4.72570312 46.19070313 -5.43359375 46.625 C-6.33464844 47.17285156 -7.23570312 47.72070312 -8.1640625 48.28515625 C-9.05738281 48.83042969 -9.95070313 49.37570312 -10.87109375 49.9375 C-15.62012006 52.63734016 -20.00229257 53.10813404 -25.3515625 52.34765625 C-29.66172037 50.62061544 -32.58469046 48.37814055 -35.3515625 44.66015625 C-37.12757045 38.77712992 -37.3975231 33.60693115 -34.7890625 27.97265625 C-31.46160073 24.38923588 -26.52245045 20.53919469 -21.47216797 20.23413086 C-20.72854004 20.23936768 -19.98491211 20.24460449 -19.21875 20.25 C-18.41308594 20.25322266 -17.60742188 20.25644531 -16.77734375 20.25976562 C-15.93558594 20.26814453 -15.09382812 20.27652344 -14.2265625 20.28515625 C-13.37707031 20.28966797 -12.52757812 20.29417969 -11.65234375 20.29882812 C-9.55205341 20.31062751 -7.4517992 20.32856319 -5.3515625 20.34765625 C-5.61237603 15.45740294 -5.61237603 15.45740294 -8.0859375 11.4296875 C-14.60756687 8.31504727 -22.73149171 10.37324917 -29.3515625 12.34765625 C-30.6715625 12.67765625 -31.9915625 13.00765625 -33.3515625 13.34765625 C-33.3515625 9.71765625 -33.3515625 6.08765625 -33.3515625 2.34765625 C-23.41714509 -2.78512608 -10.35793543 -6.30974669 0 0 Z " fill="#6A83AA" transform="translate(640.3515625,580.65234375)"/>
<path d="M0 0 C1.93746094 0.03673828 1.93746094 0.03673828 3.9140625 0.07421875 C7.375 0.3125 7.375 0.3125 11.375 1.3125 C11.375 4.9425 11.375 8.5725 11.375 12.3125 C10.12783203 12.27769531 10.12783203 12.27769531 8.85546875 12.2421875 C7.22544922 12.21511719 7.22544922 12.21511719 5.5625 12.1875 C4.48355469 12.16429687 3.40460938 12.14109375 2.29296875 12.1171875 C-0.81902868 12.08226283 -0.81902868 12.08226283 -3.625 14.3125 C-4.20248803 16.27611864 -4.20248803 16.27611864 -4.3125 18.4375 C-4.415625 19.71625 -4.51875 20.995 -4.625 22.3125 C-0.335 22.3125 3.955 22.3125 8.375 22.3125 C8.375 26.2725 8.375 30.2325 8.375 34.3125 C4.085 34.3125 -0.205 34.3125 -4.625 34.3125 C-4.625 47.5125 -4.625 60.7125 -4.625 74.3125 C-9.245 74.3125 -13.865 74.3125 -18.625 74.3125 C-18.625 60.7825 -18.625 47.2525 -18.625 33.3125 C-21.595 33.3125 -24.565 33.3125 -27.625 33.3125 C-27.625 29.6825 -27.625 26.0525 -27.625 22.3125 C-24.655 22.3125 -21.685 22.3125 -18.625 22.3125 C-18.71201172 21.36890625 -18.71201172 21.36890625 -18.80078125 20.40625 C-19.10533889 14.62835647 -18.46672958 10.95829379 -15.3046875 6.1015625 C-10.61635509 1.10794333 -6.77743986 -0.19693964 0 0 Z " fill="#6781A9" transform="translate(464.625,557.6875)"/>
<path d="M0 0 C0.66 0 1.32 0 2 0 C2 4.95 2 9.9 2 15 C7.28 15 12.56 15 18 15 C18 18.96 18 22.92 18 27 C12.72 27 7.44 27 2 27 C2.08672698 30.93860112 2.1935853 34.87485302 2.3125 38.8125 C2.33505859 39.93205078 2.35761719 41.05160156 2.38085938 42.20507812 C2.4340332 43.81479492 2.4340332 43.81479492 2.48828125 45.45703125 C2.51446533 46.44678955 2.54064941 47.43654785 2.56762695 48.45629883 C2.80951254 51.02483333 2.80951254 51.02483333 4.3359375 52.828125 C7.00354282 54.7067203 9.49361385 54.28236791 12.6875 54.1875 C13.86699219 54.16042969 15.04648437 54.13335938 16.26171875 54.10546875 C17.61716797 54.05326172 17.61716797 54.05326172 19 54 C19 57.96 19 61.92 19 66 C11.51291283 68.2183962 4.01060663 69.66969441 -3.375 66.375 C-8.04243313 63.72540665 -10.32020519 60.03938442 -12 55 C-12.0833804 52.86205475 -12.10733747 50.72157991 -12.09765625 48.58203125 C-12.09443359 47.32841797 -12.09121094 46.07480469 -12.08789062 44.78320312 C-12.07951172 43.47287109 -12.07113281 42.16253906 -12.0625 40.8125 C-12.05748317 39.47721519 -12.05292059 38.14192859 -12.04882812 36.80664062 C-12.03702695 33.53771527 -12.02056297 30.26888009 -12 27 C-14.97 27 -17.94 27 -21 27 C-20.51006007 22.60585128 -19.23276045 20.82713889 -16 17.875 C-11.5403285 13.62939273 -7.68374493 9.09548967 -3.84765625 4.28515625 C-2 2 -2 2 0 0 Z " fill="#6780A8" transform="translate(497,565)"/>
<path d="M0 0 C0 3.63 0 7.26 0 11 C-1.32 10.67 -2.64 10.34 -4 10 C-8.47786275 9.00963541 -12.42120863 8.67868131 -17 9 C-19.26918098 10.8125337 -19.26918098 10.8125337 -19.07421875 13.40625 C-17.72346392 16.66770894 -16.03685394 17.32722581 -12.87304688 18.68359375 C-12.19306641 18.95300781 -11.51308594 19.22242188 -10.8125 19.5 C1.19921875 24.3984375 1.19921875 24.3984375 4 30 C4.9479681 41.3209267 4.9479681 41.3209267 1 46 C-2.9593597 50.55677788 -8.70723703 51.61830414 -14.52734375 52.29296875 C-20.70832458 52.49802499 -26.24812755 51.24264926 -32 49 C-33 48 -33 48 -33.09765625 45.27734375 C-33.08605469 44.17519531 -33.07445312 43.07304688 -33.0625 41.9375 C-33.05347656 40.83277344 -33.04445313 39.72804688 -33.03515625 38.58984375 C-33.02355469 37.73519531 -33.01195312 36.88054688 -33 36 C-31.7315625 36.433125 -31.7315625 36.433125 -30.4375 36.875 C-29.303125 37.24625 -28.16875 37.6175 -27 38 C-25.88625 38.37125 -24.7725 38.7425 -23.625 39.125 C-19.46811268 40.12838659 -16.260753 40.28886461 -12 40 C-9.74449264 38.19046912 -9.74449264 38.19046912 -9.875 35.625 C-11.63950781 31.50781511 -15.02428834 30.6852065 -19 29 C-25.4033935 26.22050502 -29.76259221 23.47481558 -33 17 C-33.60879608 12.78466512 -33.90636836 8.74799612 -31.90625 4.890625 C-24.11509218 -4.80687994 -10.601901 -5.91734009 0 0 Z " fill="#617DA6" transform="translate(788,581)"/>
<path d="M0 0 C2.35125 0.061875 2.35125 0.061875 4.75 0.125 C4.75 4.745 4.75 9.365 4.75 14.125 C2.1821875 13.7846875 2.1821875 13.7846875 -0.4375 13.4375 C-4.07358986 13.10567175 -5.89223066 12.9789717 -9.3125 14.375 C-12.24535823 17.02403324 -13.20351685 18.62034107 -13.56884766 22.58666992 C-13.61038931 24.00935041 -13.64148895 25.43236091 -13.6640625 26.85546875 C-13.68342865 27.60588943 -13.7027948 28.35631012 -13.7227478 29.12947083 C-13.78247459 31.52369867 -13.82890065 33.91797477 -13.875 36.3125 C-13.9131862 37.9368698 -13.95223831 39.56121948 -13.9921875 41.18554688 C-14.08817025 45.16520105 -14.17222636 49.14495001 -14.25 53.125 C-18.87 53.125 -23.49 53.125 -28.25 53.125 C-28.25 36.295 -28.25 19.465 -28.25 2.125 C-23.96 2.125 -19.67 2.125 -15.25 2.125 C-14.92 3.445 -14.59 4.765 -14.25 6.125 C-13.5075 5.50625 -12.765 4.8875 -12 4.25 C-7.84846641 1.04199677 -5.28542828 -0.13909022 0 0 Z " fill="#6984AD" transform="translate(689.25,577.875)"/>
<path d="M0 0 C0.84755859 0.00322266 1.69511719 0.00644531 2.56835938 0.00976562 C3.44943359 0.01814453 4.33050781 0.02652344 5.23828125 0.03515625 C6.57729492 0.04192383 6.57729492 0.04192383 7.94335938 0.04882812 C10.14590112 0.06060642 12.34830724 0.07705461 14.55078125 0.09765625 C14.24140625 0.99484375 14.24140625 0.99484375 13.92578125 1.91015625 C13.2440621 4.38216471 13.2440621 4.38216471 15.55078125 7.09765625 C15.7932029 11.48548803 15.28315032 15.09675185 12.67578125 18.66015625 C10.55078125 20.09765625 10.55078125 20.09765625 7.55078125 20.09765625 C7.88078125 21.41765625 8.21078125 22.73765625 8.55078125 24.09765625 C10.20078125 24.09765625 11.85078125 24.09765625 13.55078125 24.09765625 C12.40386891 27.53839327 11.1420838 28.6047168 7.9765625 30.2890625 C2.09726351 32.24882883 -5.16826872 32.66307685 -10.83984375 29.95703125 C-15.24978261 26.43649183 -16.98802947 22.74324774 -17.6953125 17.15234375 C-18.01850522 12.00084764 -16.90232511 9.09598993 -13.44921875 5.09765625 C-8.97555961 1.71958711 -5.60036028 -0.03758631 0 0 Z " fill="#222B40" transform="translate(395.44921875,490.90234375)"/>
<path d="M0 0 C4.15258823 1.75331503 6.4732156 4.3000657 9 8 C10.65597473 12.13993684 10.69904062 16.86293295 9.31640625 21.08984375 C7.16417243 25.88548509 4.88538744 28.70099415 0 31 C-5.24421886 31.65552736 -8.52015969 30.74899292 -13 28 C-16.20484548 25.36744835 -17.79943777 22.54386274 -18.3359375 18.4140625 C-18.44271034 10.79048155 -17.01857059 7.27730521 -11.8125 1.625 C-7.84017594 -0.67012057 -4.48488713 -0.66987385 0 0 Z " fill="#F8FAFB" transform="translate(409,590)"/>
<path d="M0 0 C0.97001953 0.01804687 1.94003906 0.03609375 2.93945312 0.0546875 C5.31484894 0.10149333 7.68813844 0.16703615 10.0625 0.25 C10.0625 2.56 10.0625 4.87 10.0625 7.25 C8.61617187 7.30607422 8.61617187 7.30607422 7.140625 7.36328125 C5.87734375 7.42902344 4.6140625 7.49476563 3.3125 7.5625 C2.05953125 7.62050781 0.8065625 7.67851563 -0.484375 7.73828125 C-3.99656285 8.25875253 -5.56432788 8.63951067 -7.9375 11.25 C-8.41807715 13.2988648 -8.41807715 13.2988648 -8.1875 15.4375 C-8.06375 17.3246875 -8.06375 17.3246875 -7.9375 19.25 C-4.6375 19.91 -1.3375 20.57 2.0625 21.25 C1.7325 22.24 1.4025 23.23 1.0625 24.25 C0.4025 24.25 -0.2575 24.25 -0.9375 24.25 C-0.916875 25.219375 -0.89625 26.18875 -0.875 27.1875 C-0.9375 30.25 -0.9375 30.25 -1.9375 31.25 C-7.93146753 32.16811319 -12.34471699 31.24737868 -17.2734375 27.72265625 C-20.52921729 24.84136756 -21.69499477 22.13171781 -22.24609375 17.85546875 C-22.45722032 13.58815292 -22.18792272 10.79091308 -20.375 6.875 C-14.17000321 0.19269577 -8.71205825 -0.30965621 0 0 Z " fill="#6680A8" transform="translate(625.9375,601.75)"/>
<path d="M0 0 C0 3.63 0 7.26 0 11 C-10.9030753 15.97051962 -20.45499685 18.16743133 -32.16015625 13.8515625 C-34 13 -34 13 -37 11 C-37 7 -37 7 -34.4375 4.1875 C-32.99609375 2.85546875 -32.99609375 2.85546875 -31 2 C-28.65638018 2.2510014 -26.32221956 2.59645092 -24 3 C-15.36414681 3.47170627 -7.64194958 0 0 0 Z " fill="#657FA6" transform="translate(745,617)"/>
<path d="M0 0 C1.485 0.99 1.485 0.99 3 2 C3.36914349 4.65117073 3.36914349 4.65117073 3.36076355 8.08694458 C3.36694954 10.03473816 3.36694954 10.03473816 3.3732605 12.0218811 C3.3626423 13.4691793 3.35173786 14.91647542 3.34057617 16.36376953 C3.33973035 17.88128645 3.34020417 19.3988046 3.34190369 20.9163208 C3.34276681 25.04427671 3.32508999 29.17197276 3.30418181 33.29986811 C3.28546767 37.6106959 3.28366874 41.92152921 3.28010559 46.23239136 C3.27076961 54.39930446 3.24613489 62.56609754 3.21605712 70.73295772 C3.18256135 80.02906182 3.16603926 89.32517157 3.15097082 98.62132096 C3.11958663 117.74761544 3.06679605 136.87379808 3 156 C2.67 156 2.34 156 2 156 C-0.16179057 148.12140672 -0.27168542 140.61267919 -0.22705078 132.48413086 C-0.22648571 131.03454598 -0.2268051 129.58496053 -0.22793579 128.13537598 C-0.22850656 124.22482567 -0.21679715 120.31439957 -0.20278788 116.40387797 C-0.19023433 112.30795987 -0.18910639 108.2120385 -0.18673706 104.11610413 C-0.18053583 96.37090453 -0.16414348 88.62576179 -0.14403808 80.88058716 C-0.12163672 72.05830522 -0.11067502 63.23602048 -0.10064721 54.41371715 C-0.07977597 36.27577927 -0.04462653 18.13789422 0 0 Z " fill="#899DB9" transform="translate(116,598)"/>
<path d="M0 0 C0.66 0.33 1.32 0.66 2 1 C1.566875 1.98226562 1.566875 1.98226562 1.125 2.984375 C-3.2303666 13.69131789 -3.2303666 22.30868211 1.125 33.015625 C1.41375 33.67046875 1.7025 34.3253125 2 35 C-1.09194322 35.29240794 -2.59815511 35.2622862 -5.23828125 33.5390625 C-5.92277344 32.90742187 -6.60726562 32.27578125 -7.3125 31.625 C-8.00988281 30.99851562 -8.70726562 30.37203125 -9.42578125 29.7265625 C-11 28 -11 28 -11 26 C-11.928125 25.566875 -11.928125 25.566875 -12.875 25.125 C-15 24 -15 24 -17 22 C-16.625 19.375 -16.625 19.375 -16 17 C-15.34 17 -14.68 17 -14 17 C-13.87625 16.030625 -13.7525 15.06125 -13.625 14.0625 C-12.01611198 8.19125939 -6.59318901 4.61558459 -2 1 C-1.34 0.67 -0.68 0.34 0 0 Z " fill="#7089AD" transform="translate(139,582)"/>
<path d="M0 0 C2.89778641 1.31190613 4.96551483 2.7164972 7.20800781 4.96508789 C7.80832825 5.5623317 8.40864868 6.1595755 9.02716064 6.7749176 C9.66272888 7.41767136 10.29829712 8.06042511 10.953125 8.72265625 C11.61334656 9.38333603 12.27356812 10.04401581 12.95379639 10.72471619 C14.34461941 12.11855504 15.73301645 13.5148183 17.11914062 14.91333008 C19.25075922 17.06326575 21.39033252 19.20503116 23.53125 21.34570312 C24.88068245 22.7000486 26.22965699 24.05485052 27.578125 25.41015625 C28.22179016 26.05493423 28.86545532 26.69971222 29.52862549 27.36402893 C34 31.88394204 34 31.88394204 34 33 C-11.54 33 -57.08 33 -104 33 C-104 32.67 -104 32.34 -104 32 C-87.75383716 31.86947038 -71.50767324 31.73907768 -55.26150799 31.60884857 C-47.71836483 31.5483796 -40.17522203 31.48786561 -32.63208008 31.42724609 C-26.05851573 31.37441858 -19.48495072 31.32167506 -12.91138488 31.26903296 C-9.42981626 31.24114908 -5.948248 31.21322277 -2.46668053 31.18519592 C1.41715009 31.15393241 5.3009822 31.12285637 9.18481445 31.09179688 C10.92189919 31.07777077 10.92189919 31.07777077 12.69407654 31.0634613 C14.27791641 31.05084007 14.27791641 31.05084007 15.89375305 31.03796387 C17.27229446 31.02690235 17.27229446 31.02690235 18.67868519 31.01561737 C20.45242429 31.00368399 22.22622076 31 24 31 C24.99 30.67 25.98 30.34 27 30 C26.01 29.34 25.02 28.68 24 28 C24 27.01 24 26.02 24 25 C21.76671858 23.00180084 19.68345751 21.34172876 17 20 C16.71125 19.360625 16.4225 18.72125 16.125 18.0625 C15.18969271 15.86284067 15.18969271 15.86284067 13.125 15.125 C10.02113536 13.48177754 8.79306226 10.94574515 7 8 C6.67 8.66 6.34 9.32 6 10 C5.34 10 4.68 10 4 10 C2.66666667 6.66666667 1.33333333 3.33333333 0 0 Z " fill="#3B587E" transform="translate(334,817)"/>
<path d="M0 0 C4.29726774 0.0167426 5.36756002 0.07669681 8.875 2.8125 C9.49375 3.658125 10.1125 4.50375 10.75 5.375 C11.08 5.705 11.41 6.035 11.75 6.375 C11.75 8.355 11.75 10.335 11.75 12.375 C3.83 12.375 -4.09 12.375 -12.25 12.375 C-11.21075082 6.13950491 -10.70059307 5.26926894 -6.25 1.375 C-4.53055699 -0.34444301 -2.34584777 0.08154016 0 0 Z " fill="#F3F7FA" transform="translate(724.25,588.625)"/>
<path d="M0 0 C0.33 0 0.66 0 1 0 C1.00331015 1.0795184 1.00662029 2.15903681 1.01003075 3.27126789 C1.09093984 29.50968014 1.1832291 55.74803342 1.28752708 81.98636341 C1.33769944 94.67489727 1.38414177 107.36342451 1.421875 120.05200195 C1.45476358 131.10830809 1.49457732 142.1645636 1.54279006 153.22081393 C1.56808627 159.07776251 1.58985828 164.93467736 1.60334396 170.79166603 C1.61613603 176.29996158 1.6381594 181.80814168 1.66738319 187.31637383 C1.67648137 189.34208557 1.68215439 191.36781593 1.68421364 193.39354706 C1.6875204 196.15143861 1.70295454 198.90899965 1.7215271 201.66682434 C1.71959237 202.47518496 1.71765763 203.28354558 1.71566427 204.11640197 C1.754374 207.94038154 1.82736851 209.74105276 4 213 C2.68 213.33 1.36 213.66 0 214 C0 143.38 0 72.76 0 0 Z " fill="#375785" transform="translate(117,384)"/>
<path d="M0 0 C1.88138672 0.05414062 1.88138672 0.05414062 3.80078125 0.109375 C5.22970703 0.17898438 5.22970703 0.17898438 6.6875 0.25 C6.98518758 3.17726116 7.18458479 5.39440651 6.6875 8.25 C3.58456754 11.89594565 1.27014416 13.41170845 -3.4375 14.1875 C-8.65248337 14.27161264 -8.65248337 14.27161264 -11.3125 12.25 C-12.74985246 9.37529507 -12.69422649 7.43105412 -12.3125 4.25 C-8.4068586 0.13024971 -5.5513214 -0.20752603 0 0 Z " fill="#F0F5F8" transform="translate(629.3125,608.75)"/>
<path d="M0 0 C0.69738281 0.01804687 1.39476562 0.03609375 2.11328125 0.0546875 C3.82611539 0.10161446 5.53823824 0.17335395 7.25 0.25 C7.73945148 7.59177215 7.73945148 7.59177215 5.4375 10.6875 C1.40278316 13.5694406 -2.92310683 13.94926823 -7.75 13.25 C-10.66523942 11.28221339 -11.56144448 10.19277758 -12.25 6.75 C-10.90401821 0.02009105 -5.92691241 -0.29130382 0 0 Z " fill="#F3F5F7" transform="translate(402.75,498.75)"/>
<path d="M0 0 C0.495 0.99 0.495 0.99 1 2 C0.34 2.99 -0.32 3.98 -1 5 C-1.38499891 6.65549531 -1.72793135 8.3222433 -2 10 C-2.598125 9.814375 -3.19625 9.62875 -3.8125 9.4375 C-6.16408762 8.77906313 -6.16408762 8.77906313 -9 10 C-9.268125 10.763125 -9.53625 11.52625 -9.8125 12.3125 C-11 15 -11 15 -13.875 16.8125 C-17.50245784 19.35172049 -18.26171756 21.30719008 -19.98828125 25.2265625 C-21 27 -21 27 -23.75 28.5 C-24.86375 28.7475 -24.86375 28.7475 -26 29 C-26 29.66 -26 30.32 -26 31 C-26.66 31 -27.32 31 -28 31 C-27.67 32.32 -27.34 33.64 -27 35 C-27.8971875 35.1546875 -27.8971875 35.1546875 -28.8125 35.3125 C-31.28243264 36.08876455 -32.32251235 37.07088921 -34 39 C-34.66 38.67 -35.32 38.34 -36 38 C-27.03328583 23.36315776 -14.82063164 8.97038231 0 0 Z " fill="#59759C" transform="translate(169,195)"/>
<path d="M0 0 C0.66 0 1.32 0 2 0 C2 11.55 2 23.1 2 35 C-2.62 35 -7.24 35 -12 35 C-12 23.78 -12 12.56 -12 1 C-11.67 1 -11.34 1 -11 1 C-11 11.56 -11 22.12 -11 33 C-7.37 33 -3.74 33 0 33 C0 22.11 0 11.22 0 0 Z " fill="#333C4C" transform="translate(513,486)"/>
<path d="M0 0 C0.33 0 0.66 0 1 0 C1.00808685 1.15844925 1.01617371 2.3168985 1.02450562 3.51045227 C1.10190528 14.41428026 1.18962885 25.31798252 1.28752708 36.22164631 C1.33752698 41.82767055 1.3838567 47.43367561 1.421875 53.03979492 C1.45868111 58.44744208 1.50502831 63.85493014 1.55806351 69.26244164 C1.57663234 71.32812911 1.59173104 73.39385072 1.60334396 75.459589 C1.62016382 78.34733079 1.64918851 81.23470622 1.68115234 84.12231445 C1.68331253 84.98114731 1.68547272 85.83998016 1.68769836 86.72483826 C1.74339578 90.64958445 1.77467047 92.66200571 4 96 C2.02 96.495 2.02 96.495 0 97 C0 64.99 0 32.98 0 0 Z " fill="#2A4A7A" transform="translate(117,501)"/>
<path d="M0 0 C2.80969467 1.28022875 4.8539238 2.60714129 7.02441406 4.79736328 C7.86483246 5.63800827 7.86483246 5.63800827 8.722229 6.49563599 C9.31404968 7.09777924 9.90587036 7.69992249 10.515625 8.3203125 C11.13145447 8.93897186 11.74728394 9.55763123 12.3817749 10.19503784 C14.34260336 12.16703814 16.29635301 14.14588737 18.25 16.125 C19.58026799 17.46530164 20.910992 18.80515083 22.2421875 20.14453125 C25.5001015 23.42446589 28.75168533 26.71055942 32 30 C31.67 30.66 31.34 31.32 31 32 C27.76509224 31.44225728 26.02144994 30.62788492 24 28 C24 27.01 24 26.02 24 25 C21.76671858 23.00180084 19.68345751 21.34172876 17 20 C16.71125 19.360625 16.4225 18.72125 16.125 18.0625 C15.18969271 15.86284067 15.18969271 15.86284067 13.125 15.125 C10.02113536 13.48177754 8.79306226 10.94574515 7 8 C6.67 8.66 6.34 9.32 6 10 C5.34 10 4.68 10 4 10 C2.66666667 6.66666667 1.33333333 3.33333333 0 0 Z " fill="#496792" transform="translate(334,817)"/>
<path d="M0 0 C0.33 0 0.66 0 1 0 C1.01030746 0.56962967 1.02061493 1.13925934 1.03123474 1.72615051 C1.13929277 7.64705908 1.25389145 13.56781525 1.37231445 19.48852539 C1.41566552 21.69910498 1.45734046 23.90971809 1.49731445 26.12036133 C1.55501266 29.29518749 1.61870862 32.46984486 1.68359375 35.64453125 C1.70030624 36.63524124 1.71701874 37.62595123 1.73423767 38.64668274 C1.75418289 39.56741074 1.77412811 40.48813873 1.79467773 41.43676758 C1.81022202 42.2472908 1.8257663 43.05781403 1.84178162 43.89289856 C1.92809721 46.19146683 1.92809721 46.19146683 3 49 C5.97 49.33 8.94 49.66 12 50 C12 40.1 12 30.2 12 20 C12.33 20 12.66 20 13 20 C13 30.23 13 40.46 13 51 C8.71 51 4.42 51 0 51 C0 34.17 0 17.34 0 0 Z " fill="#6B809D" transform="translate(661,580)"/>
<path d="M0 0 C4.63392638 2.09122731 7.69046628 5.3227011 11.25 8.875 C12.22453125 9.81279297 12.22453125 9.81279297 13.21875 10.76953125 C13.83234375 11.37925781 14.4459375 11.98898437 15.078125 12.6171875 C15.63918945 13.17003418 16.20025391 13.72288086 16.77832031 14.29248047 C18 16 18 16 18 20 C18.66 20 19.32 20 20 20 C20.33 20.99 20.66 21.98 21 23 C16.25 22.25 16.25 22.25 14 20 C13.67 20 13.34 20 13 20 C12.9175 19.0925 12.835 18.185 12.75 17.25 C11.88011525 13.48049942 10.84284521 12.51794861 8 10 C7.360625 9.13375 6.72125 8.2675 6.0625 7.375 C3.82848047 4.80249266 2.21823647 3.98335003 -1 3 C-0.67 2.01 -0.34 1.02 0 0 Z " fill="#5D769D" transform="translate(293,775)"/>
<path d="M0 0 C0.99 0.33 1.98 0.66 3 1 C2.67 1.66 2.34 2.32 2 3 C1.34 3 0.68 3 0 3 C0.185625 3.969375 0.37125 4.93875 0.5625 5.9375 C0.59311251 8.94364872 0.03457069 9.95615248 -1.86328125 12.36328125 C-5.37453499 15.87453499 -8.97787947 19.08488512 -13 22 C-14.32 21.34 -15.64 20.68 -17 20 C-17 19.01 -17 18.02 -17 17 C-16.01 17.33 -15.02 17.66 -14 18 C-10.4131585 15.52948271 -10.4131585 15.52948271 -8 12 C-4.30769231 9 -4.30769231 9 -3 9 C-2.87625 7.700625 -2.7525 6.40125 -2.625 5.0625 C-2.4140625 2.84765625 -2.4140625 2.84765625 -2 1 C-1.34 0.67 -0.68 0.34 0 0 Z " fill="#3F5A87" transform="translate(330,401)"/>
<path d="M0 0 C0.66 0.33 1.32 0.66 2 1 C2 1.99 2 2.98 2 4 C2.99 4.33 3.98 4.66 5 5 C6.39423453 7.51748931 7.48380983 10.10759776 8.62109375 12.75 C9.78932804 15.17312339 9.78932804 15.17312339 12.16015625 15.8125 C12.76730469 15.874375 13.37445313 15.93625 14 16 C13.34 17.32 12.68 18.64 12 20 C12.598125 20.04125 13.19625 20.0825 13.8125 20.125 C16 21 16 21 17.75 24.0625 C18.1625 25.031875 18.575 26.00125 19 27 C18.01 27 17.02 27 16 27 C14.26710819 25.1216907 12.7632643 23.29481959 11.25 21.25 C10.81260498 20.66887451 10.37520996 20.08774902 9.92456055 19.48901367 C5.85284743 13.98136442 1.85697214 8.23995719 -1 2 C-0.67 1.34 -0.34 0.68 0 0 Z " fill="#778BAB" transform="translate(130,783)"/>
<path d="M0 0 C0.99 0 1.98 0 3 0 C3 0.99 3 1.98 3 3 C3.33 2.01 3.66 1.02 4 0 C4.99 0.33 5.98 0.66 7 1 C3.619547 8.53217439 -3.84828574 13.74308054 -10 19 C-10.33 18.01 -10.66 17.02 -11 16 C-10.01 15.67 -9.02 15.34 -8 15 C-7.731875 14.236875 -7.46375 13.47375 -7.1875 12.6875 C-5.59814486 9.09053837 -3.32846311 7.95366313 0 6 C-0.2784375 4.7934375 -0.2784375 4.7934375 -0.5625 3.5625 C-0.706875 2.716875 -0.85125 1.87125 -1 1 C-0.67 0.67 -0.34 0.34 0 0 Z " fill="#39557E" transform="translate(401,338)"/>
<path d="M0 0 C0 3 0 3 -1.25 4.578125 C-3.15552483 6.39858176 -5.06333259 8.21258703 -7 10 C-7.70640625 10.66386719 -8.4128125 11.32773437 -9.140625 12.01171875 C-14.60446247 17 -14.60446247 17 -18 17 C-17.67 15.68 -17.34 14.36 -17 13 C-16.01 13 -15.02 13 -14 13 C-13.67 11.35 -13.34 9.7 -13 8 C-12.34 8 -11.68 8 -11 8 C-11 7.01 -11 6.02 -11 5 C-9.68 5 -8.36 5 -7 5 C-6.67 4.34 -6.34 3.68 -6 3 C-5.01 3 -4.02 3 -3 3 C-1.31201173 1.56249809 -1.31201173 1.56249809 0 0 Z " fill="#3A5784" transform="translate(204,521)"/>
<path d="M0 0 C0.33 0.99 0.66 1.98 1 3 C-0.58015623 4.60729631 -2.16425652 6.21071576 -3.75 7.8125 C-4.63171875 8.70582031 -5.5134375 9.59914063 -6.421875 10.51953125 C-12.11811024 16 -12.11811024 16 -15 16 C-14.34 13.69 -13.68 11.38 -13 9 C-12.34 9 -11.68 9 -11 9 C-10.79375 8.38125 -10.5875 7.7625 -10.375 7.125 C-8.45211226 4.15326441 -6.31494612 4.01477942 -3 3 C-1.16310524 1.50113129 -1.16310524 1.50113129 0 0 Z " fill="#365686" transform="translate(360,380)"/>
<path d="M0 0 C1.5 1.3125 1.5 1.3125 3 3 C3 3.99 3 4.98 3 6 C2.38382813 6.17917969 1.76765625 6.35835937 1.1328125 6.54296875 C-2.05720245 8.72222805 -2.33945317 11.72972337 -3.125 15.3125 C-4.14916422 19.67577813 -5.19806078 23.8778647 -7 28 C-7.66 28 -8.32 28 -9 28 C-8.46700931 22.13052225 -7.22884692 17.21522054 -5.0625 11.75 C-4.79759766 11.05648437 -4.53269531 10.36296875 -4.25976562 9.6484375 C-2.98665502 6.35035443 -1.6650024 3.12087406 0 0 Z " fill="#687EA3" transform="translate(128,242)"/>
<path d="M0 0 C3.40312738 1.05875074 6.01353231 2.00902154 9 4 C9 4.66 9 5.32 9 6 C9.66 6 10.32 6 11 6 C11.66 7.32 12.32 8.64 13 10 C10.23735711 10.59732819 7.83967231 11 5 11 C4.67 10.34 4.34 9.68 4 9 C3.01 8.67 2.02 8.34 1 8 C0.67 5.36 0.34 2.72 0 0 Z M4 6 C4.66 6.66 5.32 7.32 6 8 C6 7.34 6 6.68 6 6 C5.34 6 4.68 6 4 6 Z " fill="#4A6898" transform="translate(319,804)"/>
<path d="M0 0 C0.33 0 0.66 0 1 0 C1 3.3 1 6.6 1 10 C-10.88 10 -22.76 10 -35 10 C-35.33 11.32 -35.66 12.64 -36 14 C-36 12.35 -36 10.7 -36 9 C-32.46190918 7.82063639 -29.0654659 7.61085684 -25.375 7.375 C-24.68148437 7.3234375 -23.98796875 7.271875 -23.2734375 7.21875 C-21.51797965 7.10217663 -19.75871823 7.0461716 -18 7 C-17.67 7.33 -17.34 7.66 -17 8 C-14.14122091 8.23701239 -11.30116703 8.42219182 -8.4375 8.5625 C-7.63119141 8.60568359 -6.82488281 8.64886719 -5.99414062 8.69335938 C-3.99631195 8.79975262 -1.9981793 8.90040888 0 9 C0 6.03 0 3.06 0 0 Z " fill="#677A9A" transform="translate(747,599)"/>
<path d="M0 0 C1.65 0 3.3 0 5 0 C5 3 5 3 3.71484375 4.61328125 C1.82195903 6.42296225 -0.07495614 8.22447411 -2 10 C-2.94939453 10.90298828 -2.94939453 10.90298828 -3.91796875 11.82421875 C-4.52253906 12.37722656 -5.12710938 12.93023438 -5.75 13.5 C-6.30171875 14.0053125 -6.8534375 14.510625 -7.421875 15.03125 C-7.94265625 15.3509375 -8.4634375 15.670625 -9 16 C-9.99 15.67 -10.98 15.34 -12 15 C-11.34 14.34 -10.68 13.68 -10 13 C-9.360625 12.13375 -8.72125 11.2675 -8.0625 10.375 C-7.381875 9.59125 -6.70125 8.8075 -6 8 C-5.01 8 -4.02 8 -3 8 C-2.67 7.01 -2.34 6.02 -2 5 C-1.34 5.33 -0.68 5.66 0 6 C0 4.02 0 2.04 0 0 Z " fill="#365683" transform="translate(179,539)"/>
<path d="M0 0 C0.99 0.99 1.98 1.98 3 3 C2.34 3 1.68 3 1 3 C0.95875 3.556875 0.9175 4.11375 0.875 4.6875 C-0.47363506 8.2517498 -2.96670278 9.816026 -6 12 C-6.99 12 -7.98 12 -9 12 C-9.33 11.01 -9.66 10.02 -10 9 C-9.071875 8.87625 -9.071875 8.87625 -8.125 8.75 C-5.83647371 8.20051917 -5.83647371 8.20051917 -4.875 6.0625 C-4.58625 5.381875 -4.2975 4.70125 -4 4 C-3.34 3.34 -2.68 2.68 -2 2 C-1.67 2.33 -1.34 2.66 -1 3 C-0.67 2.01 -0.34 1.02 0 0 Z M-2 4 C-1 6 -1 6 -1 6 Z " fill="#2D5084" transform="translate(262,465)"/>
<path d="M0 0 C0.66 0.99 1.32 1.98 2 3 C0.44997253 6.88397689 -2.00476621 9.02979619 -5.125 11.75 C-6.49011719 12.94882812 -6.49011719 12.94882812 -7.8828125 14.171875 C-8.58148438 14.77515625 -9.28015625 15.3784375 -10 16 C-10.99 15.67 -11.98 15.34 -13 15 C-12.34 15 -11.68 15 -11 15 C-10.814375 14.071875 -10.62875 13.14375 -10.4375 12.1875 C-8.50608824 7.90480437 -6.20808113 7.75974302 -2 6 C-1.02389158 3.45948786 -1.02389158 3.45948786 -1 1 C-0.67 0.67 -0.34 0.34 0 0 Z " fill="#375481" transform="translate(386,354)"/>
<path d="M0 0 C0.99 0.33 1.98 0.66 3 1 C3.5 3.5625 3.5 3.5625 3 7 C0.62513626 9.71645373 -2.01540798 11.97431305 -5 14 C-5.66 14 -6.32 14 -7 14 C-7 12.35 -7 10.7 -7 9 C-5.68 8.34 -4.36 7.68 -3 7 C-2.67 7.33 -2.34 7.66 -2 8 C-1.34 7.01 -0.68 6.02 0 5 C-0.33 4.34 -0.66 3.68 -1 3 C-0.67 2.01 -0.34 1.02 0 0 Z " fill="#355585" transform="translate(233,489)"/>
<path d="M0 0 C0.99 0.66 1.98 1.32 3 2 C3.33 1.34 3.66 0.68 4 0 C4.99 0 5.98 0 7 0 C5.49650623 3.66786393 3.36271208 5.68910393 0.375 8.25 C-0.44226563 8.95640625 -1.25953125 9.6628125 -2.1015625 10.390625 C-3.04128906 11.18726563 -3.04128906 11.18726563 -4 12 C-4.99 11.01 -5.98 10.02 -7 9 C-5.35 8.34 -3.7 7.68 -2 7 C-2 6.01 -2 5.02 -2 4 C-1 1.8125 -1 1.8125 0 0 Z " fill="#365483" transform="translate(458,288)"/>
<path d="M0 0 C0.33 0 0.66 0 1 0 C1.02187378 0.99797607 1.02187378 0.99797607 1.04418945 2.01611328 C1.11901365 5.05297114 1.21556016 8.08877091 1.3125 11.125 C1.33505859 12.17171875 1.35761719 13.2184375 1.38085938 14.296875 C1.57862309 19.97808708 1.88801712 24.17767801 5 29 C3.68 29.33 2.36 29.66 1 30 C-0.86664319 23.05352247 -1.12258057 17.08773272 -0.625 9.9375 C-0.56828125 8.97650391 -0.5115625 8.01550781 -0.453125 7.02539062 C-0.31326064 4.68266256 -0.16204185 2.34128051 0 0 Z " fill="#5F799C" transform="translate(497,591)"/>
<path d="M0 0 C2.31 0 4.62 0 7 0 C7.33 0.99 7.66 1.98 8 3 C9.65 3 11.3 3 13 3 C11.74874616 6.75376152 10.4347596 7.24073289 7 9 C6.34 9 5.68 9 5 9 C4.87625 7.329375 4.87625 7.329375 4.75 5.625 C4.42126213 1.94246056 4.42126213 1.94246056 1.9375 0.5625 C1.298125 0.376875 0.65875 0.19125 0 0 Z " fill="#2A3449" transform="translate(396,512)"/>
<path d="M0 0 C0 0.66 0 1.32 0 2 C-1.093125 2.12375 -2.18625 2.2475 -3.3125 2.375 C-7.07381802 2.75464801 -7.07381802 2.75464801 -10 5 C-11.99958364 5.04080783 -14.00045254 5.04254356 -16 5 C-16.99 5.495 -16.99 5.495 -18 6 C-20.125 5.0625 -20.125 5.0625 -22 4 C-19.27238489 3.32636628 -16.543201 2.66090556 -13.8125 2 C-13.04357422 1.80921875 -12.27464844 1.6184375 -11.48242188 1.421875 C-7.57921747 0.48376579 -4.04770205 -0.25957208 0 0 Z " fill="#677FA2" transform="translate(223,175)"/>
<path d="M0 0 C-1.12672879 3.38018638 -2.48086363 4.5572011 -5 7 C-5.99 8.485 -5.99 8.485 -7 10 C-7.66 10 -8.32 10 -9 10 C-9 12.64 -9 15.28 -9 18 C-9.33 18 -9.66 18 -10 18 C-10.91473744 9.58102767 -10.91473744 9.58102767 -8.734375 5.8125 C-3.7453125 0 -3.7453125 0 0 0 Z " fill="#7086A6" transform="translate(765,580)"/>
<path d="M0 0 C-0.33 0.99 -0.66 1.98 -1 3 C-1.66 3 -2.32 3 -3 3 C-3 3.66 -3 4.32 -3 5 C-4.31266518 6.35368596 -5.64567325 7.68799596 -7 9 C-7 9.33 -7 9.66 -7 10 C-8.65 10 -10.3 10 -12 10 C-10.58426179 6.60812721 -8.95769034 4.90302459 -6 2.75 C-5.29875 2.22921875 -4.5975 1.7084375 -3.875 1.171875 C-2 0 -2 0 0 0 Z " fill="#758DAD" transform="translate(715,580)"/>
<path d="M0 0 C0.66 0.33 1.32 0.66 2 1 C3.38079346 6.3668576 3.11350203 11.87462681 3.0625 17.375 C3.05798828 18.30183594 3.05347656 19.22867188 3.04882812 20.18359375 C3.03711574 22.45579709 3.02071372 24.72786388 3 27 C2.67 27 2.34 27 2 27 C1.91697632 26.06933716 1.91697632 26.06933716 1.83227539 25.11987305 C1.57939652 22.30873363 1.32101166 19.49812678 1.0625 16.6875 C0.93198242 15.22280273 0.93198242 15.22280273 0.79882812 13.72851562 C0.71181641 12.79072266 0.62480469 11.85292969 0.53515625 10.88671875 C0.456604 10.02264404 0.37805176 9.15856934 0.29711914 8.26831055 C0.05212023 5.83913288 0.05212023 5.83913288 -1 3 C-0.67 2.01 -0.34 1.02 0 0 Z " fill="#2E4D79" transform="translate(481,218)"/>
<path d="M0 0 C1.32 0 2.64 0 4 0 C4 3.96 4 7.92 4 12 C0.37 11.67 -3.26 11.34 -7 11 C-7 10.67 -7 10.34 -7 10 C-6.05125 9.896875 -5.1025 9.79375 -4.125 9.6875 C-0.70892499 9.31460705 -0.70892499 9.31460705 1 6 C1.66 6 2.32 6 3 6 C3 4.35 3 2.7 3 1 C2.01 0.67 1.02 0.34 0 0 Z " fill="#637DA5" transform="translate(689,579)"/>
<path d="M0 0 C1.55131943 3.92559489 0.37152113 6.30224841 -1.25 10.0625 C-1.68828125 11.10535156 -2.1265625 12.14820313 -2.578125 13.22265625 C-3.84759671 15.70231116 -4.90199595 17.21669656 -7 19 C-7 17.02 -7 15.04 -7 13 C-6.34 12.67 -5.68 12.34 -5 12 C-4.27544365 10.35767228 -3.62225605 8.68375165 -3 7 C-2.46474166 5.7264543 -1.9229052 4.45565616 -1.375 3.1875 C-0.694375 1.6096875 -0.694375 1.6096875 0 0 Z " fill="#36527F" transform="translate(480,258)"/>
<path d="M0 0 C1.010625 0.804375 2.02125 1.60875 3.0625 2.4375 C6.75545309 5.10547019 9.49377556 5.72410871 14 6 C14.33 5.34 14.66 4.68 15 4 C15 4.99 15 5.98 15 7 C10.38 7 5.76 7 1 7 C0.67 4.69 0.34 2.38 0 0 Z " fill="#667C9B" transform="translate(568,624)"/>
<path d="M0 0 C-0.25 2.375 -0.25 2.375 -1 5 C-3.56310828 6.7941758 -4.83119306 7 -8 7 C-8 6.34 -8 5.68 -8 5 C-8.66 4.67 -9.32 4.34 -10 4 C-8.71086513 3.32845067 -7.41859796 2.66291141 -6.125 2 C-5.40570313 1.62875 -4.68640625 1.2575 -3.9453125 0.875 C-2 0 -2 0 0 0 Z " fill="#5F79A1" transform="translate(192,183)"/>
<path d="M0 0 C5 2 5 2 6 4 C4.68 3.67 3.36 3.34 2 3 C2 6.63 2 10.26 2 14 C2.99 14.33 3.98 14.66 5 15 C5 15.66 5 16.32 5 17 C2.525 16.01 2.525 16.01 0 15 C0 10.05 0 5.1 0 0 Z " fill="#6A7C9C" transform="translate(326,612)"/>
<path d="M0 0 C0 1.65 0 3.3 0 5 C-0.99 5.495 -0.99 5.495 -2 6 C-4.35981813 5.06421005 -6.69631264 4.06652192 -9 3 C-9 2.34 -9 1.68 -9 1 C-5.64919071 -1.10976881 -3.77897651 -1.0497157 0 0 Z " fill="#263142" transform="translate(354,489)"/>
<path d="M0 0 C0.33 0.66 0.66 1.32 1 2 C-0.28062485 3.7074998 -1.61767557 5.37373596 -3 7 C-3.66 7 -4.32 7 -5 7 C-5 7.66 -5 8.32 -5 9 C-8.20269206 11.32923059 -11.44687712 13.26978364 -15 15 C-10.45200375 9.40246616 -5.47668152 4.6856053 0 0 Z " fill="#E2EFF7" transform="translate(377,368)"/>
<path d="M0 0 C0.33 0 0.66 0 1 0 C1.33 2.64 1.66 5.28 2 8 C1.1028125 8.1546875 1.1028125 8.1546875 0.1875 8.3125 C-2.28243264 9.08876455 -3.32251235 10.07088921 -5 12 C-5.66 11.67 -6.32 11.34 -7 11 C-5.85845641 9.16399255 -4.71165684 7.33125195 -3.5625 5.5 C-2.92441406 4.4790625 -2.28632813 3.458125 -1.62890625 2.40625 C-0.82259766 1.21515625 -0.82259766 1.21515625 0 0 Z " fill="#627CA2" transform="translate(140,222)"/>
<path d="M0 0 C4.18423892 3.50897269 8.19588166 7.08060535 12 11 C11.67 11.99 11.34 12.98 11 14 C10.01 13.67 9.02 13.34 8 13 C7.30341637 11.34561387 6.63903117 9.67745682 6 8 C4.13657278 5.81249848 2.4355616 4.62370773 0 3 C0 2.01 0 1.02 0 0 Z " fill="#627A9F" transform="translate(272,753)"/>
<path d="M0 0 C0 2.97 0 5.94 0 9 C-0.99 8.67 -1.98 8.34 -3 8 C-3.33 6.02 -3.66 4.04 -4 2 C-6.31 1.67 -8.62 1.34 -11 1 C-11 0.67 -11 0.34 -11 0 C-9.54263913 -0.19491452 -8.08405407 -0.38069358 -6.625 -0.5625 C-5.81289063 -0.66691406 -5.00078125 -0.77132812 -4.1640625 -0.87890625 C-2 -1 -2 -1 0 0 Z " fill="#788FB3" transform="translate(515,620)"/>
<path d="M0 0 C0.66 0.33 1.32 0.66 2 1 C0.73232923 2.29477062 -0.53926224 3.58570339 -1.8125 4.875 C-2.52019531 5.59429687 -3.22789062 6.31359375 -3.95703125 7.0546875 C-6.69098495 9.65795508 -8.14332891 11 -12 11 C-10.8363482 8.67269641 -9.52928388 7.56782438 -7.5625 5.875 C-6.94503906 5.33617187 -6.32757813 4.79734375 -5.69140625 4.2421875 C-4 3 -4 3 -2 3 C-2 2.34 -2 1.68 -2 1 C-1.34 0.67 -0.68 0.34 0 0 Z " fill="#395783" transform="translate(435,314)"/>
<path d="M0 0 C1.98 0 3.96 0 6 0 C6 3.63 6 7.26 6 11 C4.68 10.67 3.36 10.34 2 10 C2 9.34 2 8.68 2 8 C2.66 8 3.32 8 4 8 C4 5.69 4 3.38 4 1 C2.68 0.67 1.36 0.34 0 0 Z " fill="#7683A5" transform="translate(470,559)"/>
<path d="M0 0 C0.99 0 1.98 0 3 0 C3 0.99 3 1.98 3 3 C3.33 2.01 3.66 1.02 4 0 C4.99 0.33 5.98 0.66 7 1 C6.3125 2.9375 6.3125 2.9375 5 5 C2.375 5.75 2.375 5.75 0 6 C-0.38218767 4.34385343 -0.71395102 2.67542976 -1 1 C-0.67 0.67 -0.34 0.34 0 0 Z " fill="#2C5084" transform="translate(401,338)"/>
<path d="M0 0 C3.21524305 1.40844718 5.32183868 3.10344786 7.75 5.625 C8.67039062 6.57246094 8.67039062 6.57246094 9.609375 7.5390625 C10.29773438 8.26222656 10.29773438 8.26222656 11 9 C10.01 9.33 9.02 9.66 8 10 C7.443125 9.21625 6.88625 8.4325 6.3125 7.625 C3.92331435 4.91295142 2.39926587 4.03866457 -1 3 C-0.67 2.01 -0.34 1.02 0 0 Z " fill="#63799D" transform="translate(293,775)"/>
<path d="M0 0 C1.98 0.66 3.96 1.32 6 2 C6.66 1.34 7.32 0.68 8 0 C8.33 2.64 8.66 5.28 9 8 C7.68388323 7.04663979 6.37221039 6.08714226 5.0625 5.125 C4.33160156 4.59132813 3.60070312 4.05765625 2.84765625 3.5078125 C1 2 1 2 0 0 Z " fill="#768AAB" transform="translate(152,815)"/>
<path d="M0 0 C2.31 1.65 4.62 3.3 7 5 C6.67 5.66 6.34 6.32 6 7 C4.35 6.67 2.7 6.34 1 6 C0.67 4.02 0.34 2.04 0 0 Z M0 7 C2 8 2 8 2 8 Z " fill="#8196BA" transform="translate(176,656)"/>
<path d="M0 0 C2.97 0.99 5.94 1.98 9 3 C9 3.33 9 3.66 9 4 C11.31 4.33 13.62 4.66 16 5 C16 5.33 16 5.66 16 6 C9.34454208 6.54330269 5.54165256 5.77304004 0 2 C0 1.34 0 0.68 0 0 Z " fill="#8194AF" transform="translate(608,627)"/>
<path d="M0 0 C1.57159226 3.14318453 0.04018399 5.92933389 -0.9375 9.125 C-1.13279297 9.78371094 -1.32808594 10.44242188 -1.52929688 11.12109375 C-2.01304986 12.74933552 -2.50569075 14.37493182 -3 16 C-3.33 16 -3.66 16 -4 16 C-4.54330269 9.34454208 -3.77304004 5.54165256 0 0 Z " fill="#7385A6" transform="translate(450,563)"/>
<path d="M0 0 C0.99 0.33 1.98 0.66 3 1 C2.67 1.66 2.34 2.32 2 3 C1.34 3 0.68 3 0 3 C0 5.31 0 7.62 0 10 C-1.65 10.33 -3.3 10.66 -5 11 C-4.67 10.34 -4.34 9.68 -4 9 C-3.67 9 -3.34 9 -3 9 C-2.87625 7.700625 -2.7525 6.40125 -2.625 5.0625 C-2.4140625 2.84765625 -2.4140625 2.84765625 -2 1 C-1.34 0.67 -0.68 0.34 0 0 Z " fill="#2E5185" transform="translate(330,401)"/>
<path d="M0 0 C0.66 0.33 1.32 0.66 2 1 C1.25 3.4375 1.25 3.4375 0 6 C-1.9375 6.75 -1.9375 6.75 -4 7 C-4.99 7.33 -5.98 7.66 -7 8 C-5.50902342 4.2047869 -3.24299151 2.38957269 0 0 Z " fill="#7790B4" transform="translate(139,582)"/>
<path d="M0 0 C0.66 1.32 1.32 2.64 2 4 C0.68 5.32 -0.64 6.64 -2 8 C-2.99 7.67 -3.98 7.34 -5 7 C-1.125 1.125 -1.125 1.125 0 0 Z " fill="#305284" transform="translate(339,397)"/>
<path d="M0 0 C4.13621084 3.3810038 7.81316569 6.66590534 11 11 C10.01 11 9.02 11 8 11 C6.70130009 9.5389626 5.40816838 8.06958931 4.20703125 6.52734375 C2.97305347 4.89591296 2.97305347 4.89591296 1.1875 3.25 C0 2 0 2 0 0 Z " fill="#7A8EAB" transform="translate(208,688)"/>
<path d="M0 0 C0.66 1.32 1.32 2.64 2 4 C-2.22949995 6.41685712 -5.12335991 7.34833144 -10 7 C-9.67 6.34 -9.34 5.68 -9 5 C-6.35139573 4.40644386 -3.70802678 4.25790731 -1 4 C-0.67 2.68 -0.34 1.36 0 0 Z " fill="#62799C" transform="translate(363,624)"/>
<path d="M0 0 C0.99 0 1.98 0 3 0 C3 0.99 3 1.98 3 3 C3.66 3 4.32 3 5 3 C5.33 3.99 5.66 4.98 6 6 C3.625 5.75 3.625 5.75 1 5 C-0.3125 2.9375 -0.3125 2.9375 -1 1 C-0.67 0.67 -0.34 0.34 0 0 Z " fill="#4D6A9A" transform="translate(308,792)"/>
<path d="M0 0 C1.65 1.65 3.3 3.3 5 5 C3.02 5.66 1.04 6.32 -1 7 C-0.67 4.69 -0.34 2.38 0 0 Z " fill="#7D91B3" transform="translate(186,665)"/>
<path d="M0 0 C-0.5625 1.875 -0.5625 1.875 -2 4 C-5.625 5.25 -5.625 5.25 -9 6 C-3.15384615 0 -3.15384615 0 0 0 Z " fill="#768CAE" transform="translate(684,579)"/>
<path d="M0 0 C0.99 0 1.98 0 3 0 C1.63016497 3.16115776 1.0109362 3.9927092 -2 6 C-2.99 5.67 -3.98 5.34 -5 5 C-5 4.01 -5 3.02 -5 2 C-2.525 2.495 -2.525 2.495 0 3 C0 2.01 0 1.02 0 0 Z " fill="#314F81" transform="translate(249,479)"/>
<path d="M0 0 C0.66 0.33 1.32 0.66 2 1 C3.54023996 1.06950541 5.08334988 1.08452357 6.625 1.0625 C7.44226563 1.05347656 8.25953125 1.04445313 9.1015625 1.03515625 C9.72804688 1.02355469 10.35453125 1.01195312 11 1 C11.33 1.66 11.66 2.32 12 3 C6.72 3 1.44 3 -4 3 C-2.68 2.01 -1.36 1.02 0 0 Z " fill="#3B5A80" transform="translate(356,847)"/>
<path d="M0 0 C0.33 0.99 0.66 1.98 1 3 C1.66 3.33 2.32 3.66 3 4 C2.67 6.31 2.34 8.62 2 11 C0.11772118 7.73738338 -0.58481145 4.73669693 -1 1 C-0.67 0.67 -0.34 0.34 0 0 Z " fill="#8497B2" transform="translate(121,759)"/>
<path d="M0 0 C0.66 0 1.32 0 2 0 C2.33 2.31 2.66 4.62 3 7 C2.01 7.66 1.02 8.32 0 9 C0 6.03 0 3.06 0 0 Z " fill="#5D789F" transform="translate(419,600)"/>
<path d="M0 0 C0.66 0.33 1.32 0.66 2 1 C1.1875 2.9375 1.1875 2.9375 0 5 C-0.99 5.33 -1.98 5.66 -3 6 C-3 6.66 -3 7.32 -3 8 C-3.66 8 -4.32 8 -5 8 C-3.8141763 4.62496331 -2.72426311 2.35277269 0 0 Z " fill="#7285A6" transform="translate(332,565)"/>
<path d="M0 0 C0.78375 0.04125 1.5675 0.0825 2.375 0.125 C-0.08653846 3.94038462 -0.08653846 3.94038462 -2.8125 4.875 C-3.410625 4.9575 -4.00875 5.04 -4.625 5.125 C-4.625 1.22254579 -3.95783286 0.18846823 0 0 Z " fill="#667E9F" transform="translate(786.625,625.875)"/>
<path d="M0 0 C0.66 0.66 1.32 1.32 2 2 C1.34 3.32 0.68 4.64 0 6 C-3 6 -3 6 -6 4 C-4.02 2.68 -2.04 1.36 0 0 Z " fill="#2C3649" transform="translate(487,470)"/>
<path d="M0 0 C0.99 0.33 1.98 0.66 3 1 C3.99 0.67 4.98 0.34 6 0 C6 0.99 6 1.98 6 3 C4.02 3.99 4.02 3.99 2 5 C1.01 3.68 0.02 2.36 -1 1 C-0.67 0.67 -0.34 0.34 0 0 Z " fill="#335384" transform="translate(313,418)"/>
<path d="M0 0 C1.2684375 0.12375 1.2684375 0.12375 2.5625 0.25 C3.2225 1.24 3.8825 2.23 4.5625 3.25 C1.79985711 3.84732819 -0.59782769 4.25 -3.4375 4.25 C-3.4375 0.3525641 -3.4375 0.3525641 0 0 Z " fill="#4A6694" transform="translate(327.4375,810.75)"/>
<path d="M0 0 C2.35953094 2.35953094 2.49141413 3.77895617 3 7 C1.35 7.66 -0.3 8.32 -2 9 C-1.34 6.03 -0.68 3.06 0 0 Z " fill="#DDEBF6" transform="translate(559,600)"/>
<path d="M0 0 C0.33 0 0.66 0 1 0 C1.103125 1.19625 1.20625 2.3925 1.3125 3.625 C1.78891352 7.5624176 3.01130716 10.54140375 5 14 C1.125 12.25 1.125 12.25 0 10 C-0.06996014 8.29297265 -0.08440154 6.58331997 -0.0625 4.875 C-0.05347656 3.96492187 -0.04445313 3.05484375 -0.03515625 2.1171875 C-0.02355469 1.41851563 -0.01195312 0.71984375 0 0 Z " fill="#617999" transform="translate(756,590)"/>
<path d="M0 0 C0.66 0.33 1.32 0.66 2 1 C-0.31 3.64 -2.62 6.28 -5 9 C-5.33 8.01 -5.66 7.02 -6 6 C-4 4 -2 2 0 0 Z " fill="#E5EFF8" transform="translate(719,589)"/>
<path d="M0 0 C-2.97 2.475 -2.97 2.475 -6 5 C-6.66 4.67 -7.32 4.34 -8 4 C-7 1 -7 1 -4.5625 -0.25 C-2 -1 -2 -1 0 0 Z " fill="#3A547F" transform="translate(225,505)"/>
<path d="M0 0 C0 4.38968456 -2.12805101 5.76905739 -5 9 C-5.99 8.34 -6.98 7.68 -8 7 C-5.36 4.69 -2.72 2.38 0 0 Z " fill="#E8F1F9" transform="translate(285,451)"/>
<path d="M0 0 C1.32 0.66 2.64 1.32 4 2 C4 5 4 5 2.5 6.6875 C2.005 7.120625 1.51 7.55375 1 8 C0.34 7.67 -0.32 7.34 -1 7 C-0.649375 6.401875 -0.29875 5.80375 0.0625 5.1875 C1.33304698 2.89186786 1.33304698 2.89186786 0 0 Z " fill="#2D5080" transform="translate(296,433)"/>
<path d="M0 0 C2.31 1.98 4.62 3.96 7 6 C6.34 6.66 5.68 7.32 5 8 C2.5 5.6875 2.5 5.6875 0 3 C0 2.01 0 1.02 0 0 Z " fill="#4B6589" transform="translate(462,185)"/>
<path d="M0 0 C1.32 0.33 2.64 0.66 4 1 C4 1.66 4 2.32 4 3 C4.66 3.33 5.32 3.66 6 4 C4.125 4.625 4.125 4.625 2 5 C1.34 4.34 0.68 3.68 0 3 C0 2.01 0 1.02 0 0 Z " fill="#59729F" transform="translate(324,807)"/>
<path d="M0 0 C5.57142857 5.14285714 5.57142857 5.14285714 6 9 C5.01 8.67 4.02 8.34 3 8 C3 7.01 3 6.02 3 5 C2.34 5 1.68 5 1 5 C0.67 3.35 0.34 1.7 0 0 Z " fill="#7687A7" transform="translate(741,585)"/>
<path d="M0 0 C0.66 0 1.32 0 2 0 C0.60667426 3.36720387 -0.9789286 4.9859524 -4 7 C-4.66 6.34 -5.32 5.68 -6 5 C-5.34 5 -4.68 5 -4 5 C-4 4.34 -4 3.68 -4 3 C-2.68 2.67 -1.36 2.34 0 2 C0 1.34 0 0.68 0 0 Z " fill="#31507B" transform="translate(243,485)"/>
<path d="M0 0 C-1.47692308 4.67692308 -1.47692308 4.67692308 -4.125 6.3125 C-5.053125 6.6528125 -5.053125 6.6528125 -6 7 C-5.37162381 3.35541809 -4.14650034 0 0 0 Z " fill="#5071A2" transform="translate(160,205)"/>
<path d="M0 0 C-1.0975223 2.99324263 -1.67682892 3.84610901 -4.625 5.25 C-5.40875 5.4975 -6.1925 5.745 -7 6 C-7.33 5.34 -7.66 4.68 -8 4 C-2.25 0 -2.25 0 0 0 Z " fill="#637CA2" transform="translate(178,190)"/>
<path d="M0 0 C-0.125 1.875 -0.125 1.875 -1 4 C-4.0625 5.25 -4.0625 5.25 -7 6 C-7.33 5.34 -7.66 4.68 -8 4 C-2.25 0 -2.25 0 0 0 Z " fill="#D8E4F0" transform="translate(637,626)"/>
<path d="M0 0 C-1.75 3.875 -1.75 3.875 -4 5 C-4.66 4.34 -5.32 3.68 -6 3 C-6 2.34 -6 1.68 -6 1 C-3 0 -3 0 0 0 Z " fill="#7587B1" transform="translate(618,602)"/>
<path d="M0 0 C1.65 0.33 3.3 0.66 5 1 C4.01 2.485 4.01 2.485 3 4 C1.68 4 0.36 4 -1 4 C-0.67 2.68 -0.34 1.36 0 0 Z " fill="#2F5083" transform="translate(191,529)"/>
<path d="M0 0 C0.33 0.99 0.66 1.98 1 3 C-0.75 5.0625 -0.75 5.0625 -3 7 C-5.25 6.75 -5.25 6.75 -7 6 C-5.6100869 3.22017379 -3.81341647 3.12536659 -1 2 C-0.67 1.34 -0.34 0.68 0 0 Z " fill="#30507D" transform="translate(360,380)"/>
<path d="M0 0 C0.99 0.33 1.98 0.66 3 1 C1.7260411 3.03833424 0.38938077 5.03852126 -1 7 C-1.66 7 -2.32 7 -3 7 C-1.125 1.125 -1.125 1.125 0 0 Z " fill="#657CA3" transform="translate(132,235)"/>
<path d="M0 0 C0.99 0.33 1.98 0.66 3 1 C3.33333333 2.33333333 3.66666667 3.66666667 4 5 C4.99 5.33 5.98 5.66 7 6 C6.34 6.66 5.68 7.32 5 8 C0 2.25 0 2.25 0 0 Z " fill="#7283A3" transform="translate(702,619)"/>
<path d="M0 0 C1.32 1.65 2.64 3.3 4 5 C2.68 5.33 1.36 5.66 0 6 C-0.38218767 4.34385343 -0.71395102 2.67542976 -1 1 C-0.67 0.67 -0.34 0.34 0 0 Z " fill="#6E82A3" transform="translate(712,612)"/>
<path d="M0 0 C0.66 0.33 1.32 0.66 2 1 C2 4.63 2 8.26 2 12 C1.67 12 1.34 12 1 12 C0.45533613 7.915021 0 4.1274515 0 0 Z " fill="#61799B" transform="translate(369,603)"/>
<path d="M0 0 C1.98 0.495 1.98 0.495 4 1 C2.35 2.65 0.7 4.3 -1 6 C-0.67 4.02 -0.34 2.04 0 0 Z " fill="#355481" transform="translate(411,333)"/>
</svg>
